<?xml version="1.0" encoding="UTF-8"?>
<svg width="100px" height="100px" viewBox="0 0 100 100" version="1.1" xmlns="http://www.w3.org/2000/svg" xmlns:xlink="http://www.w3.org/1999/xlink">
    <title>ZyteLogo Vert</title>
    <defs>
        <linearGradient x1="0%" y1="50%" x2="100%" y2="50%" id="linearGradient-1">
            <stop stop-color="#05C9F0" offset="0%"></stop>
            <stop stop-color="#0085C0" offset="100%"></stop>
        </linearGradient>
    </defs>
    <g id="ZyteLogo-Vert" stroke="none" stroke-width="1" fill="none" fill-rule="evenodd">
        <circle id="Oval" fill="#FFFFFF" cx="50" cy="50" r="50"></circle>
        <path d="M17.8617836,88.3033863 C-3.29194954,70.5532966 -6.05114774,39.0155168 11.698942,17.8617836 C29.4490317,-3.29194954 60.9868114,-6.05114774 82.1405446,11.698942 C103.294278,29.4490317 106.053476,60.9868114 88.3033863,82.1405446 C70.5532966,103.294278 39.0155168,106.053476 17.8617836,88.3033863 Z M70.0291858,64.626948 L70.7151757,65.1973792 L70.7151757,65.1973792 L71.2075412,65.5904074 L71.2075412,65.5904074 L71.5266281,65.8359512 L71.5266281,65.8359512 L71.8377131,66.0670726 L71.8377131,66.0670726 L72.1402164,66.2827068 L72.1402164,66.2827068 L72.4335582,66.4817888 L72.4335582,66.4817888 L72.7171586,66.6632538 L72.7171586,66.6632538 L72.990438,66.8260368 C74.4640286,67.6680157 75.44299,67.6139809 75.493228,65.866655 L75.4952245,65.7031203 L75.3624283,44.2937713 L75.3624283,44.2937713 L75.3539698,43.9771563 L75.3539698,43.9771563 L75.3361841,43.6666959 C75.2299592,42.2817371 74.7350578,41.0485888 72.4290494,39.4929048 L67.7846643,36.4661467 L67.7846643,36.4661467 L67.5356904,36.3121922 L67.5356904,36.3121922 L67.2865315,36.1673715 L67.2865315,36.1673715 L67.03867,36.0335634 C66.9975502,36.0122842 66.9565462,35.991542 66.9156889,35.9713762 L66.6725526,35.8576098 C65.4681437,35.3264856 64.4513509,35.3844689 64.4559609,37.0883668 L64.4598748,37.2642821 L64.599848,57.5351791 L64.599848,57.5351791 L64.6113818,57.8080742 C64.664022,58.6837737 64.9021748,60.0396931 65.9512617,60.987355 L68.3963297,63.1988411 L69.2234248,63.9317639 C69.4959569,64.1704968 69.7649332,64.40294 70.0291858,64.626948 Z M44.4929679,37.8992816 L44.6911446,62.7109362 L44.6988785,63.269762 L44.6988785,63.269762 L44.7146027,63.7934523 C44.7213534,63.9624301 44.7297024,64.1259576 44.7399161,64.2844402 L44.7764178,64.7451591 C45.0037724,67.1259346 45.7767243,68.319048 48.1869076,69.9855938 L48.6582697,70.3040247 L48.6582697,70.3040247 L67.9507086,82.8410197 C69.0835859,83.5794516 69.8086682,83.6638939 70.4555838,83.646711 L70.7109625,83.6357272 L70.7109625,83.6357272 L70.9626915,83.6217592 C73.2155352,83.391382 75.4983897,80.9181693 75.4988522,78.6831078 C75.5244847,78.2152822 75.3576444,77.7899273 74.935501,77.4544782 L74.8595528,77.3815749 L74.8595528,77.3815749 L74.7784317,77.3104209 L57.2528146,62.604682 C56.1187363,61.6530774 55.9290405,60.7286643 55.8962301,59.8382899 L55.8892528,59.3959709 L55.8892528,59.3959709 L55.6890495,34.1895963 C55.687658,34.0015675 55.6852982,33.8195865 55.681717,33.6432686 L55.667056,33.1309194 L55.667056,33.1309194 L55.6435473,32.6502408 C55.4823928,30.0117694 54.8218914,28.7875967 52.4179868,27.0878579 L51.9754175,26.7825826 C51.8985553,26.7307524 51.8201216,26.6784147 51.7400849,26.6255213 L31.943606,13.7202253 C31.5189885,13.4395745 30.9718586,13.3622951 30.2413818,13.3299451 C27.3060955,13.2274229 24.7447856,16.1041624 24.881342,18.2174247 C24.8557095,18.6852503 25.0225498,19.1106052 25.4446932,19.4460543 L25.5206414,19.5189576 L25.5206414,19.5189576 L25.6017625,19.5901116 L43.1273796,34.2958505 C44.2497663,35.2376448 44.4471421,36.1528053 44.4828985,37.0346944 L44.4898786,37.3274161 L44.4898786,37.3274161 L44.4929679,37.8992816 Z" id="Shape-Copy" fill="url(#linearGradient-1)"></path>
    </g>
</svg>