<?xml version="1.0" encoding="UTF-8"?>
<svg width="120px" height="120px" viewBox="0 0 120 120" version="1.1" xmlns="http://www.w3.org/2000/svg" xmlns:xlink="http://www.w3.org/1999/xlink">
    <title>ZyteLogo Vert Copy 3</title>
    <defs>
        <linearGradient x1="100%" y1="47.9492129%" x2="1.63237479e-13%" y2="47.9492129%" id="linearGradient-1">
            <stop stop-color="#046C98" offset="0%"></stop>
            <stop stop-color="#09A0BE" offset="100%"></stop>
        </linearGradient>
        <circle id="path-2" cx="60" cy="60" r="60"></circle>
        <filter x="-8.3%" y="-8.3%" width="116.7%" height="116.7%" filterUnits="objectBoundingBox" id="filter-3">
            <feGaussianBlur stdDeviation="10" in="SourceAlpha" result="shadowBlurInner1"></feGaussianBlur>
            <feOffset dx="0" dy="0" in="shadowBlurInner1" result="shadowOffsetInner1"></feOffset>
            <feComposite in="shadowOffsetInner1" in2="SourceAlpha" operator="arithmetic" k2="-1" k3="1" result="shadowInnerInner1"></feComposite>
            <feColorMatrix values="0 0 0 0 0.0695443211   0 0 0 0 0.322972298   0 0 0 0 0.652428668  0 0 0 1 0" type="matrix" in="shadowInnerInner1"></feColorMatrix>
        </filter>
        <linearGradient x1="0%" y1="50%" x2="100%" y2="50%" id="linearGradient-4">
            <stop stop-color="#05C9F0" offset="0%"></stop>
            <stop stop-color="#0085C0" offset="100%"></stop>
        </linearGradient>
        <path d="M27.8617836,98.3033863 C6.70805046,80.5532966 3.94885226,49.0155168 21.698942,27.8617836 C39.4490317,6.70805046 70.9868114,3.94885226 92.1405446,21.698942 C113.294278,39.4490317 116.053476,70.9868114 98.3033863,92.1405446 C80.5532966,113.294278 49.0155168,116.053476 27.8617836,98.3033863 Z M80.0291858,74.626948 L80.7151757,75.1973792 L80.7151757,75.1973792 L81.2075412,75.5904074 L81.2075412,75.5904074 L81.5266281,75.8359512 L81.5266281,75.8359512 L81.8377131,76.0670726 L81.8377131,76.0670726 L82.1402164,76.2827068 L82.1402164,76.2827068 L82.4335582,76.4817888 L82.4335582,76.4817888 L82.7171586,76.6632538 L82.7171586,76.6632538 L82.990438,76.8260368 C84.4640286,77.6680157 85.44299,77.6139809 85.493228,75.866655 L85.4952245,75.7031203 L85.3624283,54.2937713 L85.3624283,54.2937713 L85.3539698,53.9771563 L85.3539698,53.9771563 L85.3361841,53.6666959 C85.2299592,52.2817371 84.7350578,51.0485888 82.4290494,49.4929048 L77.7846643,46.4661467 L77.7846643,46.4661467 L77.5356904,46.3121922 L77.5356904,46.3121922 L77.2865315,46.1673715 L77.2865315,46.1673715 L77.03867,46.0335634 C76.9975502,46.0122842 76.9565462,45.991542 76.9156889,45.9713762 L76.6725526,45.8576098 C75.4681437,45.3264856 74.4513509,45.3844689 74.4559609,47.0883668 L74.4598748,47.2642821 L74.599848,67.5351791 L74.599848,67.5351791 L74.6113818,67.8080742 C74.664022,68.6837737 74.9021748,70.0396931 75.9512617,70.987355 L78.3963297,73.1988411 L79.2234248,73.9317639 C79.4959569,74.1704968 79.7649332,74.40294 80.0291858,74.626948 Z M54.4929679,47.8992816 L54.6911446,72.7109362 L54.6988785,73.269762 L54.6988785,73.269762 L54.7146027,73.7934523 C54.7213534,73.9624301 54.7297024,74.1259576 54.7399161,74.2844402 L54.7764178,74.7451591 C55.0037724,77.1259346 55.7767243,78.319048 58.1869076,79.9855938 L58.6582697,80.3040247 L58.6582697,80.3040247 L77.9507086,92.8410197 C79.0835859,93.5794516 79.8086682,93.6638939 80.4555838,93.646711 L80.7109625,93.6357272 L80.7109625,93.6357272 L80.9626915,93.6217592 C83.2155352,93.391382 85.4983897,90.9181693 85.4988522,88.6831078 C85.5244847,88.2152822 85.3576444,87.7899273 84.935501,87.4544782 L84.8595528,87.3815749 L84.8595528,87.3815749 L84.7784317,87.3104209 L67.2528146,72.604682 C66.1187363,71.6530774 65.9290405,70.7286643 65.8962301,69.8382899 L65.8892528,69.3959709 L65.8892528,69.3959709 L65.6890495,44.1895963 C65.687658,44.0015675 65.6852982,43.8195865 65.681717,43.6432686 L65.667056,43.1309194 L65.667056,43.1309194 L65.6435473,42.6502408 C65.4823928,40.0117694 64.8218914,38.7875967 62.4179868,37.0878579 L61.9754175,36.7825826 C61.8985553,36.7307524 61.8201216,36.6784147 61.7400849,36.6255213 L41.943606,23.7202253 C41.5189885,23.4395745 40.9718586,23.3622951 40.2413818,23.3299451 C37.3060955,23.2274229 34.7447856,26.1041624 34.881342,28.2174247 C34.8557095,28.6852503 35.0225498,29.1106052 35.4446932,29.4460543 L35.5206414,29.5189576 L35.5206414,29.5189576 L35.6017625,29.5901116 L53.1273796,44.2958505 C54.2497663,45.2376448 54.4471421,46.1528053 54.4828985,47.0346944 L54.4898786,47.3274161 L54.4898786,47.3274161 L54.4929679,47.8992816 Z" id="path-5"></path>
        <filter x="-2.0%" y="-2.0%" width="104.0%" height="104.0%" filterUnits="objectBoundingBox" id="filter-6">
            <feGaussianBlur stdDeviation="2" in="SourceAlpha" result="shadowBlurInner1"></feGaussianBlur>
            <feOffset dx="0" dy="0" in="shadowBlurInner1" result="shadowOffsetInner1"></feOffset>
            <feComposite in="shadowOffsetInner1" in2="SourceAlpha" operator="arithmetic" k2="-1" k3="1" result="shadowInnerInner1"></feComposite>
            <feColorMatrix values="0 0 0 0 1   0 0 0 0 1   0 0 0 0 1  0 0 0 0.25 0" type="matrix" in="shadowInnerInner1"></feColorMatrix>
        </filter>
    </defs>
    <g id="ZyteLogo-Vert-Copy-3" stroke="none" stroke-width="1" fill="none" fill-rule="evenodd">
        <g id="Oval-Blue-Gradient-w-inner-shad">
            <use fill="url(#linearGradient-1)" fill-rule="evenodd" xlink:href="#path-2"></use>
            <use fill="black" fill-opacity="1" filter="url(#filter-3)" xlink:href="#path-2"></use>
        </g>
        <circle id="Oval-White" fill="#FFFFFF" cx="60" cy="60" r="50"></circle>
        <g id="Shape-Copy">
            <use fill="url(#linearGradient-4)" fill-rule="evenodd" xlink:href="#path-5"></use>
            <use fill="black" fill-opacity="1" filter="url(#filter-6)" xlink:href="#path-5"></use>
        </g>
    </g>
</svg>